#!OML:ASF X:\für Bonn\!DataBase\2005_08_12_Daniel\c3d\Daniel.ASF
:FULLY-SPECIFIED
:DEGREES
46
root 1.19518 17.2784 1.2356 166.709 -3.48632 -179.022
lowerback 27.9797 -0.729892 5.82723
upperback 8.34306 -1.44035 -0.530074
thorax -6.15533 -1.54893 -3.38541
lowerneck 7.1369 2.28799 -5.50009
upperneck 22.5753 -0.251629 1.68704
head 5.66846 -1.55315 1.35383
rclavicle 5.71506e-016 -1.15295e-014
rhumerus -34.4014 21.2715 -96.1461
rradius 70.1973
rwrist -60.8088
rhand -15.2599 5.02497
rfingers 7.12502
rthumb 10.9141 -24.6714
lclavicle 5.71506e-016 -1.15295e-014
lhumerus -30.3823 27.8851 80.8974
lradius 32.8658
lwrist -18.6819
lhand -12.2196 -8.27611
lfingers 7.12502
lthumb 13.8454 21.2431
rfemur -5.45576 3.72289 21.419
rtibia 30.5505
rfoot -14.1196 -8.2351
rtoes -8.8044
lfemur -10.7995 -5.69256 -13.9782
ltibia 50.8308
lfoot -19.1871 -1.37252
ltoes -12.9663
47
root 1.19232 17.2887 1.21823 166.905 -3.43784 -179.035
lowerback 28.2991 -0.675376 5.84022
upperback 8.45201 -1.40202 -0.54096
thorax -6.18019 -1.54949 -3.41278
lowerneck 7.14809 2.21205 -5.5303
upperneck 22.3217 -0.317877 1.7991
head 5.58772 -1.55529 1.3952
rclavicle 6.4605e-015 -4.37326e-015
rhumerus -33.8393 21.198 -95.8367
rradius 70.1785
rwrist -60.5376
rhand -15.4149 5.08705
rfingers 7.12502
rthumb 10.7646 -24.6171
lclavicle 6.4605e-015 -4.37326e-015
lhumerus -30.4665 27.9624 80.8051
lradius 32.7425
lwrist -18.617
lhand -12.333 -8.32743
lfingers 7.12502
lthumb 13.7361 21.1992
rfemur -5.4758 3.80386 21.4155
rtibia 30.3251
rfoot -14.0695 -8.28565
rtoes -8.77609
lfemur -10.953 -5.96777 -14.1451
ltibia 49.5155
lfoot -19.3199 -0.917949
ltoes -13.0801
48
root 1.19032 17.2953 1.20188 167.109 -3.38123 -179.042
lowerback 28.6029 -0.622007 5.85214
upperback 8.56817 -1.36993 -0.572569
thorax -6.18969 -1.55291 -3.4612
lowerneck 7.16885 2.13735 -5.51444
upperneck 22.0475 -0.378305 1.90922
head 5.49895 -1.55023 1.42834
rclavicle 5.95733e-015 9.86469e-015
rhumerus -33.2792 21.0726 -95.5895
rradius 70.1705
rwrist -60.1699
rhand -15.5473 5.13657
rfingers 7.12502
rthumb 10.6369 -24.5742
lclavicle 5.95733e-015 9.86469e-015
lhumerus -30.5727 27.9174 80.6819
lradius 32.6687
lwrist -18.4202
lhand -12.4008 -8.32647
lfingers 7.12502
lthumb 13.6708 21.2046
rfemur -5.56898 3.8881 21.4165
rtibia 30.2011
rfoot -14.0614 -8.31317
rtoes -8.79157
lfemur -11.1224 -6.17561 -14.2724
ltibia 48.3092
lfoot -19.3238 -0.429531
ltoes -13.036
49
root 1.18696 17.3054 1.18707 167.318 -3.31503 -179.055
lowerback 28.9116 -0.570123 5.82282
upperback 8.69376 -1.35537 -0.597179
thorax -6.19179 -1.56628 -3.47235
lowerneck 7.13641 2.06572 -5.44548
upperneck 21.7755 -0.415207 1.96275
head 5.41903 -1.53132 1.43495
rclavicle 6.70898e-016 4.21175e-015
rhumerus -32.688 21.0032 -95.3382
rradius 70.1658
rwrist -59.7902
rhand -15.6155 5.26364
rfingers 7.12502
rthumb 10.5711 -24.4505
lclavicle 6.70898e-016 4.21175e-015
lhumerus -30.6785 27.9449 80.5577
lradius 32.628
lwrist -18.2455
lhand -12.4882 -8.21429
lfingers 7.12502
lthumb 13.5865 21.3224
rfemur -5.70237 3.93111 21.3959
rtibia 30.1384
rfoot -14.0816 -8.27855
rtoes -8.78824
lfemur -11.294 -6.37393 -14.407
ltibia 47.2173
lfoot -19.2114 0.196129
ltoes -13.0934
50
root 1.18302 17.3079 1.17285 167.51 -3.26753 -179.059
lowerback 29.209 -0.530649 5.79447
upperback 8.85054 -1.3678 -0.62117
thorax -6.15491 -1.59481 -3.47494
lowerneck 7.06319 2.01001 -5.43466
upperneck 21.5033 -0.434074 2.07346
head 5.34487 -1.50361 1.46986
rclavicle -2.25108e-015 3.42282e-015
rhumerus -32.0653 20.9228 -95.1034
rradius 70.1841
rwrist -59.3334
rhand -15.6882 5.40849
rfingers 7.12502
rthumb 10.5009 -24.3092
lclavicle -2.25108e-015 3.42282e-015
lhumerus -30.7617 27.9158 80.4562
lradius 32.6242
lwrist -17.952
lhand -12.5181 -8.08963
lfingers 7.12502
lthumb 13.5577 21.449
rfemur -5.87314 3.95819 21.379
rtibia 30.1623
rfoot -14.1184 -8.24149
rtoes -8.69813
lfemur -11.4716 -6.51509 -14.521
ltibia 46.2954
lfoot -19.0568 0.815753
ltoes -13.2611
51
root 1.17849 17.3078 1.15986 167.717 -3.19898 -179.055
lowerback 29.4983 -0.490588 5.73809
upperback 8.99979 -1.38604 -0.630732
thorax -6.1224 -1.62627 -3.44322
lowerneck 7.04143 1.95991 -5.42048
upperneck 21.1919 -0.440981 2.13846
head 5.25016 -1.47286 1.48992
rclavicle -4.19933e-015 -2.85753e-016
rhumerus -31.4705 20.8759 -94.8897
rradius 70.2153
rwrist -58.7845
rhand -15.7272 5.55639
rfingers 7.12502
rthumb 10.4633 -24.1632
lclavicle -4.19933e-015 -2.85753e-016
lhumerus -30.881 27.9533 80.3257
lradius 32.6359
lwrist -17.7268
lhand -12.4948 -7.90848
lfingers 7.12502
lthumb 13.5801 21.6286
rfemur -6.09655 3.91982 21.3568
rtibia 30.2416
rfoot -14.1878 -8.10882
rtoes -8.76825
lfemur -11.6449 -6.58091 -14.6157
ltibia 45.5413
lfoot -18.9821 1.44887
ltoes -13.3378
52
root 1.17373 17.3073 1.14804 167.923 -3.15125 -179.064
lowerback 29.7832 -0.458132 5.68877
upperback 9.15492 -1.41679 -0.669176
thorax -6.08214 -1.66373 -3.44378
lowerneck 6.99173 1.91218 -5.3207
upperneck 20.9151 -0.442804 2.19384
head 5.17079 -1.4354 1.49236
rclavicle -9.51682e-015 -5.2181e-015
rhumerus -30.8521 20.7785 -94.7067
rradius 70.2348
rwrist -58.2368
rhand -15.7454 5.73644
rfingers 7.12502
rthumb 10.4458 -23.9841
lclavicle -9.51682e-015 -5.2181e-015
lhumerus -31.0034 27.9335 80.1657
lradius 32.671
lwrist -17.4646
lhand -12.4803 -7.73339
lfingers 7.12502
lthumb 13.5941 21.8028
rfemur -6.36456 3.91894 21.3166
rtibia 30.3988
rfoot -14.3079 -8.00295
rtoes -8.76623
lfemur -11.787 -6.59661 -14.7269
ltibia 44.9713
lfoot -18.9885 2.0605
ltoes -13.4547
53
root 1.16672 17.3039 1.1405 168.103 -3.03624 -179.074
lowerback 30.0796 -0.405439 5.6254
upperback 9.3657 -1.44767 -0.70421
thorax -5.98256 -1.70737 -3.43277
lowerneck 6.86977 1.86395 -5.25976
upperneck 20.6107 -0.429883 2.25564
head 5.09402 -1.38834 1.50374
rclavicle 4.34841e-016 7.45443e-016
rhumerus -30.1246 20.7024 -94.5063
rradius 70.2626
rwrist -57.6932
rhand -15.7186 5.94503
rfingers 7.12502
rthumb 10.4716 -23.7742
lclavicle 4.34841e-016 7.45443e-016
lhumerus -31.0094 28.0286 80.031
lradius 32.6543
lwrist -17.2836
lhand -12.4554 -7.53018
lfingers 7.12502
lthumb 13.6181 22.0044
rfemur -6.64719 3.83533 21.2648
rtibia 30.581
rfoot -14.367 -7.77882
rtoes -8.87924
lfemur -11.8787 -6.40675 -14.8346
ltibia 44.5593
lfoot -19.0746 2.65244
ltoes -13.798
54
root 1.15782 17.3024 1.13641 168.311 -2.88588 -179.1
lowerback 30.3972 -0.340152 5.5587
upperback 9.52881 -1.45036 -0.747675
thorax -5.94368 -1.7351 -3.43793
lowerneck 6.89088 1.81199 -5.12174
upperneck 20.2389 -0.424254 2.2642
head 4.97406 -1.34445 1.48528
rclavicle -3.23025e-016 -7.70291e-015
rhumerus -29.4947 20.62 -94.3269
rradius 70.3071
rwrist -57.0631
rhand -15.7598 6.20917
rfingers 7.12502
rthumb 10.4318 -23.512
lclavicle -3.23025e-016 -7.70291e-015
lhumerus -31.1024 28.0791 79.8708
lradius 32.6429
lwrist -17.1579
lhand -12.4014 -7.37861
lfingers 7.12502
lthumb 13.6701 22.1524
rfemur -6.99153 3.75505 21.1881
rtibia 30.7712
rfoot -14.3782 -7.52305
rtoes -9.05269
lfemur -12.0058 -6.11305 -14.9806
ltibia 44.269
lfoot -19.16 3.32899
ltoes -14.4873
55
root 1.14992 17.3006 1.13317 168.492 -2.76214 -179.109
lowerback 30.7022 -0.287061 5.49814
upperback 9.72835 -1.48054 -0.780978
thorax -5.85865 -1.77929 -3.42655
lowerneck 6.88213 1.76768 -5.05396
upperneck 19.8656 -0.411811 2.31239
head 4.85839 -1.29965 1.49113
rclavicle 6.36111e-015 8.94531e-016
rhumerus -28.8118 20.5546 -94.1488
rradius 70.3865
rwrist -56.4489
rhand -15.8065 6.39664
rfingers 7.12502
rthumb 10.3868 -23.3268
lclavicle 6.36111e-015 8.94531e-016
lhumerus -31.1582 28.0707 79.7643
lradius 32.6792
lwrist -16.9207
lhand -12.3533 -7.13305
lfingers 7.12502
lthumb 13.7165 22.3949
rfemur -7.28585 3.67589 21.1301
rtibia 30.9435
rfoot -14.4236 -7.2817
rtoes -9.06595
lfemur -12.1149 -5.71997 -15.0998
ltibia 44.0815
lfoot -19.2645 3.92635
ltoes -14.9547
56
root 1.14258 17.3002 1.12861 168.687 -2.68551 -179.119
lowerback 30.9645 -0.238975 5.41749
upperback 9.93918 -1.52687 -0.808211
thorax -5.74174 -1.83102 -3.39216
lowerneck 6.87443 1.72384 -4.96338
upperneck 19.4715 -0.392708 2.34755
head 4.73628 -1.24981 1.48912
rclavicle 3.8266e-015 -6.95746e-015
rhumerus -28.114 20.4912 -93.945
rradius 70.4416
rwrist -55.8301
rhand -15.8207 6.67036
rfingers 7.12502
rthumb 10.3731 -23.0538
lclavicle 3.8266e-015 -6.95746e-015
lhumerus -31.1788 28.1591 79.6327
lradius 32.6629
lwrist -16.8808
lhand -12.2226 -6.94443
lfingers 7.12502
lthumb 13.8425 22.5749
rfemur -7.57015 3.54957 21.064
rtibia 31.0895
rfoot -14.4692 -7.05974
rtoes -9.09429
lfemur -12.2433 -5.32386 -15.2311
ltibia 43.9624
lfoot -19.3736 4.49222
ltoes -15.2103
